<?xml version="1.0" encoding="UTF-8"?>
<svg id="Capa_1" data-name="Capa 1" xmlns="http://www.w3.org/2000/svg" viewBox="0 0 164.79 166.24">
  <defs>
    <style>
      .cls-1 {
        stroke: #47266e;
        stroke-miterlimit: 10;
        stroke-width: 2.21px;
      }

      .cls-1, .cls-2 {
        fill: #48276f;
      }

      .cls-3 {
        fill: #564595;
      }
    </style>
  </defs>
  <path class="cls-3" d="M164.12.34c.22.61.37,1.2.51,1.82-.01.19,0,.39.02.57-.07-.29-.11-.57-.12-.86h0s-.42-1.53-.42-1.53Z"/>
  <path class="cls-3" d="M164.66,2.27s-.01-.07-.02-.11c.02-.85.32,1.44.02.11Z"/>
  <g>
    <path class="cls-1" d="M80.84,50.79c-2.29,0-4.58-.1-6.78-.2h-.25c-7.97-.37-17.87-1.6-23.68-7.99-3.29-3.61-4.81-8.37-4.53-14.13.77-15.79,14.49-28.05,30.59-27.33,7.91.36,15.17,3.74,20.44,9.53,5.13,5.64,7.76,12.91,7.39,20.46h0c-.84,17.22-12.02,19.66-23.17,19.66ZM74.83,10.82c-10.37,0-19.04,7.95-19.53,18.12-.15,3.13.51,5.46,2.01,7.12,2.59,2.84,8.13,4.41,16.93,4.81h.25c15.62.71,19.32-.14,19.81-10.21h0c.24-4.96-1.49-9.74-4.87-13.45-3.52-3.87-8.38-6.13-13.69-6.37-.31-.01-.61-.02-.91-.02Z"/>
    <path class="cls-2" d="M128.83,93.5c-11.19-29.05-43.25-43.95-71.47-33.22-23.79,9.05-39.22,33.08-37.5,58.46.23,3.59,3.36,6.3,6.94,6.06,3.6-.25,6.31-3.35,6.06-6.95-1.33-19.7,10.65-38.37,29.14-45.4,24.11-9.17,47.15,6.22,54.66,25.72,6.91,17.91,2.16,30.69-3.02,38.25-7.56,11-19.69,16.77-27.77,16.77-6.09,0-12.43-4.98-16.96-13.34-.31-.56-.6-1.13-.89-1.72,14.5-7.63,23.98-17.76,26.56-24.15,4.45-11,1.02-18.57.6-19.4-1.66-3.35-4.34-6.1-7.99-8.2-10.29-5.92-23.23-1.79-30.76,9.82-6.66,10.29-7.29,23.19-4.64,34.79-12.14,4.32-14.71,3.92-31.98,1.97-.4-.05-.77-.16-1.16-.17h-.01l-14.19-3.91c-.34-.1-.64.25-.48.57l3.05,6.49c.26.53.03,1.17-.52,1.42l-6.23,2.82c-.31.14-.34.6-.03.76,3.44,1.71,12.06,3.7,16.14,4.6.1.03.22.07.34.09,17.58,3.2,24.82,2.8,39.33-2.29.44.94.91,1.86,1.4,2.75,6.96,12.8,17.31,20.14,28.42,20.14,13.61,0,29.45-9.22,38.51-22.43,9.84-14.34,11.42-32.22,4.46-50.31ZM64,125.41c-1.29-7.85-.57-16.02,3.35-22.1,2.31-3.55,6.02-6.57,9.8-6.57,1.17,0,2.36.3,3.52.96,1.33.76,2.23,1.59,2.72,2.53.18.53,1.15,3.74-.93,8.88-1.19,2.93-7.71,10.16-18.47,16.3Z"/>
  </g>
</svg>