<?xml version="1.0" encoding="UTF-8"?>
<svg id="Capa_1" data-name="Capa 1" xmlns="http://www.w3.org/2000/svg" viewBox="0 0 363.5 151.18">
  <defs>
    <style>
      .cls-1 {
        fill: #7a4d99;
        font-size: 63.8px;
      }

      .cls-1, .cls-2 {
        font-family: BerlinSansFB-Reg, 'Berlin Sans FB';
      }

      .cls-3 {
        font-family: Nunito-Regular, Nunito;
        font-size: 15.76px;
        font-variation-settings: 'wght' 400;
      }

      .cls-3, .cls-4, .cls-2, .cls-5 {
        fill: #48276f;
      }

      .cls-6 {
        letter-spacing: .02em;
      }

      .cls-4 {
        stroke: #47266e;
        stroke-miterlimit: 10;
        stroke-width: 1.9px;
      }

      .cls-7 {
        fill: #564595;
      }

      .cls-2 {
        font-size: 71.55px;
      }

      .cls-8 {
        letter-spacing: .02em;
      }

      .cls-9 {
        letter-spacing: .01em;
      }
    </style>
  </defs>
  <g>
    <path class="cls-4" d="M112.16,43.77c-1.98,0-3.95-.09-5.84-.17h-.22c-6.87-.32-15.4-1.38-20.41-6.88-2.83-3.11-4.15-7.21-3.91-12.18.66-13.61,12.49-24.17,26.36-23.56,6.82.31,13.07,3.22,17.62,8.21,4.42,4.86,6.68,11.12,6.37,17.64h0c-.72,14.84-10.36,16.94-19.97,16.94ZM106.98,9.33c-8.93,0-16.41,6.85-16.84,15.62-.13,2.7.44,4.71,1.74,6.14,2.23,2.45,7,3.8,14.59,4.15h.22c13.46.61,16.65-.12,17.08-8.8h0c.21-4.27-1.28-8.39-4.2-11.59-3.03-3.33-7.23-5.28-11.8-5.49-.26-.01-.53-.02-.79-.02Z"/>
    <path class="cls-5" d="M153.52,80.58c-9.64-25.04-37.27-37.88-61.6-28.63-20.51,7.8-33.8,28.51-32.32,50.39.2,3.09,2.9,5.43,5.98,5.23,3.1-.21,5.44-2.89,5.23-5.99-1.15-16.98,9.18-33.07,25.11-39.13,20.78-7.9,40.63,5.36,47.1,22.17,5.96,15.44,1.87,26.45-2.61,32.97-6.52,9.48-16.97,14.45-23.93,14.45-5.25,0-10.71-4.29-14.62-11.5-.27-.48-.52-.98-.76-1.48,12.5-6.57,20.66-15.3,22.89-20.81,3.83-9.48.88-16,.52-16.72-1.43-2.89-3.74-5.26-6.89-7.07-8.87-5.1-20.02-1.54-26.51,8.46-5.74,8.87-6.28,19.99-4,29.98-10.46,3.72-12.68,3.38-27.56,1.7-.35-.04-.66-.13-1-.15h-.01l-12.23-3.37c-.29-.09-.55.21-.42.49l2.63,5.6c.22.46.02,1.01-.45,1.22l-5.37,2.43c-.27.12-.29.52-.02.65,2.97,1.47,10.39,3.19,13.91,3.97.09.02.19.06.29.08,15.15,2.76,21.39,2.42,33.9-1.98.38.81.79,1.61,1.2,2.37,6,11.03,14.92,17.36,24.5,17.36,11.73,0,25.38-7.94,33.19-19.33,8.48-12.36,9.84-27.77,3.84-43.36ZM97.65,108.08c-1.11-6.76-.49-13.81,2.89-19.05,1.99-3.06,5.19-5.66,8.45-5.66,1.01,0,2.03.26,3.03.83,1.15.65,1.92,1.37,2.35,2.18.16.46.99,3.22-.8,7.65-1.02,2.53-6.64,8.75-15.92,14.05Z"/>
  </g>
  <g>
    <path class="cls-7" d="M46.04,30.65s.08.02.12.02c-.08-.01-.14-.02-.19-.02-.06-.01-.11-.02-.14-.02h.06s.1.01.15.02Z"/>
    <path class="cls-7" d="M54.73,30.78h.05c.85-.08-1.15.22-.05,0Z"/>
    <path class="cls-7" d="M62.39,27.93c.14-.1.28-.18.32-.2-.02.02-.08.06-.19.14-.08.05-.13.08-.15.09.01-.01.01-.02.02-.02Z"/>
    <path class="cls-7" d="M65.55,20.55c.51-.5-.72,1.07-.01.02,0-.01.01-.01.01-.02Z"/>
    <path class="cls-7" d="M67.02,12.49c-.02-.08-.04-.16-.05-.24l.09.33s-.02-.06-.03-.1Z"/>
    <path class="cls-7" d="M66.92,18.2s.01-.01.01-.02h.01c.56-1.14-.2.73-.02.02Z"/>
    <path class="cls-7" d="M67.52,16.02v-.02c.26-1.01-.02,1.24,0,.02Z"/>
    <path class="cls-7" d="M67.55,14.36s-.01-.06-.02-.1c.02-.79.29,1.33.02.1Z"/>
  </g>
  <path class="cls-7" d="M67.06,12.58c.2.56.34,1.11.47,1.68-.01.17,0,.36.02.53-.06-.27-.1-.53-.11-.8h0s-.39-1.41-.39-1.41Z"/>
  <path class="cls-7" d="M67.55,14.36s-.01-.06-.02-.1c.02-.79.29,1.33.02.1Z"/>
  <text class="cls-1" transform="translate(181.43 70.87)"><tspan x="0" y="0">LES</tspan></text>
  <text class="cls-2" transform="translate(166.18 112.64)"><tspan x="0" y="0">health</tspan></text>
  <text class="cls-3" transform="translate(244.16 133.54)"><tspan class="cls-8" x="0" y="0">Un día a la </tspan><tspan class="cls-9" x="83.24" y="0">v</tspan><tspan class="cls-6" x="91.58" y="0">e</tspan><tspan class="cls-8" x="100.27" y="0">z...</tspan></text>
  <path class="cls-7" d="M195.43,9.64h.03c.55-.05-.74.14-.03,0Z"/>
  <path class="cls-7" d="M319.83,64.38c.3-.3-.43.64,0,.01,0,0,0,0,0-.01Z"/>
</svg>