<?xml version="1.0" encoding="UTF-8"?>
<svg id="Capa_1" data-name="Capa 1" xmlns="http://www.w3.org/2000/svg" viewBox="0 0 204.73 204.73">
  <defs>
    <style>
      .cls-1 {
        letter-spacing: .01em;
      }

      .cls-2 {
        fill: #f2e8f7;
      }

      .cls-3 {
        fill: #7a4d99;
        font-size: 33.17px;
      }

      .cls-3, .cls-4 {
        font-family: BerlinSansFB-Reg, 'Berlin Sans FB';
      }

      .cls-5 {
        font-family: Nunito-Regular, Nunito;
        font-size: 8.2px;
        font-variation-settings: 'wght' 400;
      }

      .cls-5, .cls-4, .cls-6, .cls-7 {
        fill: #48276f;
      }

      .cls-8 {
        letter-spacing: .02em;
      }

      .cls-4 {
        font-size: 37.2px;
      }

      .cls-6 {
        stroke: #47266e;
        stroke-miterlimit: 10;
        stroke-width: .99px;
      }

      .cls-9 {
        letter-spacing: .02em;
      }
    </style>
  </defs>
  <circle class="cls-2" cx="102.36" cy="102.36" r="102.36"/>
  <g>
    <path class="cls-6" d="M55.09,87.93c-1.03,0-2.05-.05-3.04-.09h-.11c-3.57-.17-8.01-.72-10.61-3.58-1.47-1.62-2.16-3.75-2.03-6.33.34-7.08,6.49-12.57,13.71-12.25,3.54.16,6.8,1.68,9.16,4.27,2.3,2.53,3.48,5.78,3.31,9.17h0c-.38,7.72-5.39,8.81-10.38,8.81ZM52.4,70.02c-4.65,0-8.53,3.56-8.75,8.12-.07,1.4.23,2.45.9,3.19,1.16,1.27,3.64,1.98,7.59,2.16h.11c7,.32,8.66-.06,8.88-4.58h0c.11-2.22-.67-4.36-2.18-6.03-1.58-1.73-3.76-2.75-6.14-2.85-.14,0-.27,0-.41,0Z"/>
    <path class="cls-7" d="M76.6,107.07c-5.01-13.02-19.38-19.69-32.03-14.89-10.66,4.05-17.57,14.82-16.8,26.2.11,1.61,1.51,2.82,3.11,2.72,1.61-.11,2.83-1.5,2.72-3.11-.6-8.83,4.77-17.19,13.06-20.34,10.8-4.11,21.13,2.79,24.49,11.53,3.1,8.03.97,13.75-1.36,17.14-3.39,4.93-8.82,7.51-12.44,7.51-2.73,0-5.57-2.23-7.6-5.98-.14-.25-.27-.51-.4-.77,6.5-3.42,10.74-7.96,11.9-10.82,1.99-4.93.46-8.32.27-8.69-.74-1.5-1.95-2.73-3.58-3.67-4.61-2.65-10.41-.8-13.78,4.4-2.99,4.61-3.27,10.39-2.08,15.59-5.44,1.93-6.59,1.76-14.33.88-.18-.02-.34-.07-.52-.08h0l-6.36-1.75c-.15-.05-.29.11-.22.26l1.37,2.91c.12.24.01.53-.23.64l-2.79,1.26c-.14.06-.15.27-.01.34,1.54.77,5.4,1.66,7.23,2.06.05.01.1.03.15.04,7.88,1.43,11.12,1.26,17.63-1.03.2.42.41.84.63,1.23,3.12,5.74,7.76,9.03,12.74,9.03,6.1,0,13.2-4.13,17.26-10.05,4.41-6.43,5.12-14.44,2-22.55ZM47.55,121.37c-.58-3.52-.26-7.18,1.5-9.9,1.03-1.59,2.7-2.94,4.39-2.94.53,0,1.06.13,1.58.43.6.34,1,.71,1.22,1.13.08.24.51,1.68-.41,3.98-.53,1.31-3.45,4.55-8.28,7.3Z"/>
  </g>
  <text class="cls-3" transform="translate(91.11 102.02)"><tspan x="0" y="0">LES</tspan></text>
  <text class="cls-4" transform="translate(83.18 123.74)"><tspan x="0" y="0">health</tspan></text>
  <text class="cls-5" transform="translate(123.72 134.61)"><tspan class="cls-9" x="0" y="0">Un día a la </tspan><tspan class="cls-1" x="43.28" y="0">v</tspan><tspan class="cls-8" x="47.62" y="0">e</tspan><tspan class="cls-9" x="52.13" y="0">z...</tspan></text>
</svg>