<?xml version="1.0" encoding="UTF-8"?>
<svg id="Capa_1" data-name="Capa 1" xmlns="http://www.w3.org/2000/svg" viewBox="0 0 352.46 165.55">
  <defs>
    <style>
      .cls-1 {
        font-size: 77.58px;
      }

      .cls-1, .cls-2, .cls-3 {
        fill: #48276f;
      }

      .cls-1, .cls-4 {
        font-family: BerlinSansFB-Reg, 'Berlin Sans FB';
      }

      .cls-5 {
        fill: #564595;
      }

      .cls-2 {
        stroke: #47266e;
        stroke-miterlimit: 10;
        stroke-width: 2.07px;
      }

      .cls-4 {
        fill: #7a4d99;
        font-size: 69.18px;
      }
    </style>
  </defs>
  <path class="cls-5" d="M291.22,0c.22.61.37,1.2.51,1.82-.01.19,0,.39.02.57-.07-.29-.11-.57-.12-.86h0s-.42-1.53-.42-1.53Z"/>
  <path class="cls-5" d="M291.76,1.93s-.01-.07-.02-.11c.02-.85.32,1.44.02.11Z"/>
  <g>
    <g>
      <path class="cls-2" d="M89.2,57.67c-2.14,0-4.28-.1-6.34-.19h-.23c-7.45-.35-16.7-1.5-22.13-7.46-3.07-3.38-4.5-7.82-4.24-13.21.72-14.76,13.54-26.21,28.58-25.54,7.39.33,14.18,3.5,19.1,8.91,4.8,5.27,7.25,12.06,6.9,19.12h0c-.78,16.09-11.24,18.37-21.65,18.37ZM83.59,20.32c-9.69,0-17.79,7.43-18.25,16.93-.14,2.93.47,5.11,1.88,6.65,2.42,2.65,7.59,4.12,15.82,4.49h.23c14.59.67,18.06-.14,18.51-9.54h0c.23-4.63-1.39-9.1-4.55-12.57-3.29-3.61-7.83-5.73-12.8-5.95-.29-.01-.57-.02-.85-.02Z"/>
      <path class="cls-3" d="M134.05,97.58c-10.45-27.14-40.41-41.07-66.79-31.04-22.23,8.46-36.65,30.91-35.04,54.63.22,3.35,3.14,5.88,6.48,5.67,3.36-.23,5.9-3.13,5.67-6.49-1.24-18.41,9.95-35.86,27.23-42.42,22.53-8.57,44.06,5.81,51.07,24.04,6.46,16.74,2.02,28.68-2.83,35.75-7.07,10.28-18.4,15.67-25.95,15.67-5.69,0-11.61-4.65-15.85-12.46-.29-.52-.56-1.06-.83-1.61,13.55-7.13,22.41-16.59,24.82-22.56,4.15-10.28.95-17.35.56-18.13-1.55-3.13-4.06-5.7-7.47-7.66-9.61-5.53-21.71-1.67-28.74,9.17-6.23,9.61-6.81,21.67-4.34,32.51-11.34,4.03-13.75,3.66-29.89,1.84-.38-.04-.72-.15-1.08-.16h-.01l-13.26-3.66c-.32-.1-.6.23-.45.54l2.85,6.07c.24.5.02,1.1-.49,1.33l-5.82,2.63c-.29.13-.32.56-.02.71,3.22,1.6,11.27,3.46,15.08,4.3.1.02.21.07.32.09,16.43,2.99,23.2,2.62,36.76-2.14.41.88.85,1.74,1.3,2.57,6.51,11.96,16.18,18.82,26.56,18.82,12.72,0,27.52-8.61,35.99-20.96,9.2-13.4,10.67-30.11,4.17-47.02ZM73.47,127.4c-1.21-7.33-.54-14.97,3.13-20.65,2.16-3.31,5.63-6.14,9.16-6.14,1.1,0,2.21.28,3.29.9,1.24.71,2.08,1.49,2.55,2.36.17.5,1.07,3.5-.86,8.3-1.11,2.74-7.2,9.49-17.26,15.23Z"/>
    </g>
    <text class="cls-4" transform="translate(164.32 87.06)"><tspan x="0" y="0">LES</tspan></text>
    <text class="cls-1" transform="translate(147.78 132.34)"><tspan x="0" y="0">health</tspan></text>
    <path class="cls-5" d="M.17,100.07c.35-.35-.51.75,0,.02,0,0,0,0,0-.02Z"/>
  </g>
</svg>